<svg width="16" height="16" viewBox="0 0 16 16" fill="none" xmlns="http://www.w3.org/2000/svg"><style>path{fill: #000;}@media (prefers-color-scheme:dark){path{fill:#fff}}</style><path d="M8.467 0C9.066 0 9.55.477 9.55 1.067s-.484 1.066-1.083 1.066a1.074 1.074 0 0 1-1.083-1.066C7.384.477 7.87 0 8.467 0ZM7.384 3.56c0 .59.485 1.067 1.083 1.067.599 0 1.083-.477 1.083-1.067s-.484-1.066-1.083-1.066c-.598 0-1.083.476-1.083 1.066Zm0 4.984c0 .59.485 1.066 1.083 1.066.599 0 1.083-.477 1.083-1.066 0-.59-.484-1.067-1.083-1.067-.598 0-1.083.477-1.083 1.067Zm4.923-.925a1.06 1.06 0 0 0-.396 1.46c.3.51.961.684 1.482.39a1.06 1.06 0 0 0 .396-1.46 1.092 1.092 0 0 0-1.482-.39Zm-2.191 1.245a1.06 1.06 0 0 0-.396 1.46c.3.51.96.684 1.482.39.521-.296.695-.947.395-1.46-.299-.51-.96-.685-1.481-.39Zm2.191-3.739a1.06 1.06 0 0 0-.396 1.46c.3.51.961.684 1.482.39a1.06 1.06 0 0 0 .396-1.46 1.092 1.092 0 0 0-1.482-.39Zm-1.851 8.883a1.06 1.06 0 0 0-.396 1.46c.3.509.96.683 1.482.389.521-.295.695-.947.395-1.46-.299-.51-.964-.684-1.481-.39Zm-4.72-5.144a1.06 1.06 0 0 0-.395 1.46c.3.513.96.684 1.482.39.52-.296.694-.947.395-1.46a1.092 1.092 0 0 0-1.482-.39ZM7.384 6.05c0 .59.485 1.067 1.083 1.067.599 0 1.083-.477 1.083-1.067s-.484-1.067-1.083-1.067c-.598 0-1.083.477-1.083 1.067Zm4.923-3.414a1.06 1.06 0 0 0-.396 1.46c.3.509.961.684 1.482.389a1.06 1.06 0 0 0 .396-1.46 1.092 1.092 0 0 0-1.482-.39ZM10.116 3.88a1.06 1.06 0 0 0-.396 1.46c.3.51.96.685 1.482.39a1.06 1.06 0 0 0 .395-1.46c-.299-.51-.96-.684-1.481-.39Zm-4.38 2.494a1.06 1.06 0 0 0-.395 1.46c.3.513.96.684 1.482.39a1.06 1.06 0 0 0 .395-1.46 1.092 1.092 0 0 0-1.482-.39ZM3.545 7.619a1.06 1.06 0 0 0-.396 1.46c.3.51.961.684 1.482.39.521-.296.695-.947.396-1.46a1.092 1.092 0 0 0-1.482-.39Zm6.57-6.228a1.06 1.06 0 0 0-.395 1.46c.3.509.96.684 1.482.389.521-.295.695-.947.395-1.46-.299-.51-.96-.684-1.481-.39ZM5.737 3.88a1.06 1.06 0 0 0-.395 1.46c.3.509.96.684 1.482.389a1.06 1.06 0 0 0 .395-1.46 1.096 1.096 0 0 0-1.482-.39ZM3.545 5.124a1.06 1.06 0 0 0-.396 1.46c.3.513.961.684 1.482.39a1.06 1.06 0 0 0 .396-1.46 1.092 1.092 0 0 0-1.482-.39Zm-.4-2.1c-.299.51-.121 1.165.396 1.46.517.295 1.183.12 1.482-.39.3-.51.122-1.165-.396-1.46a1.095 1.095 0 0 0-1.481.39ZM5.338 1.78c-.3.51-.122 1.165.395 1.46.518.295 1.183.12 1.482-.39.3-.51.122-1.165-.395-1.46a1.095 1.095 0 0 0-1.482.39Zm4.217 9.253c0-.59-.484-1.066-1.083-1.066s-1.083.477-1.083 1.066V16h2.17v-4.94c-.008-.007-.004-.015-.004-.026Z"/></svg>
