<svg xmlns="http://www.w3.org/2000/svg" width="120.667" height="33" viewBox="0 0 120.667 33">
                            <g id="LOGO设计" transform="translate(-518.833 -1130.5)">
                                <g id="MAIKE" transform="translate(518.833 1130.5)">
                                    <path id="E" d="M0,33V27.667H16.333V33ZM0,19.167V13.833H9.667v5.333ZM0,5.333V0H16.333V5.333Z" transform="translate(53.167 0)"></path>
                                    <path id="K" d="M5.258,33H0V31.572L7.68,16.5h0L0,1.425V0H5.259l8.407,16.5h0L5.258,33h0Z" transform="translate(50.167 33) rotate(180)"></path>
                                    <rect id="I" width="5.333" height="33" transform="translate(28.167 0)"></rect>
                                    <path id="A" d="M5.676,33H0L12.01,0V10.667h0V0h3.157V10.667H13.8L9.558,22.333h5.609v5.333H7.617L5.676,33h0Z" transform="translate(10)"></path>
                                    <path id="M" d="M0,33V0H5.333V33ZM12.54,17.374l-7.206-8.9V0l9.335,11.527L12.54,17.374Z" transform="translate(0 0)"></path>
                                </g>
                                <g id="LAB" transform="translate(594.333 1143.5)">
                                    <path id="A-2" data-name="A" d="M3.547,20H0L7.279,0V0H9.167V6.667H8.4L5.973,13.334H9.166v3.333H4.76L3.547,20h0Z" transform="translate(16 0)"></path>
                                    <path id="L" d="M4.724,20H3.333V16.667H6L4.725,20h0ZM0,20V0H3.333V20Z" transform="translate(9)"></path>
                                    <path id="_" data-name="「" d="M3.333,10V6.667H6.667V10ZM0,10V0H3.333V10Z" transform="translate(0 10)"></path>
                                    <path id="_2" data-name="」" d="M3.333,10V3.333H0V0H6.667V10Z" transform="translate(38.5)"></path>
                                    <path id="B" d="M0,20V16.667H5.333V11.333H0V8H4.833V3.333H0V0H4.833A3.333,3.333,0,0,1,8.167,3.333V8a3.324,3.324,0,0,1-.239,1.241,3.32,3.32,0,0,1,.739,2.093v5.333A3.333,3.333,0,0,1,5.333,20Z" transform="translate(27.5 0)"></path>
                                </g>
                                <text id="SINCE_2002" data-name="SINCE 2002" transform="translate(639.5 1134.5)" font-size="4" font-family="Orbitron-Bold, Orbitron" font-weight="700">
                                    <tspan x="-28.376" y="0">SINCE 2002</tspan>
                                </text>
                            </g>
                        </svg>
