<svg id="组件_10_1" data-name="组件 10 – 1" xmlns="http://www.w3.org/2000/svg" width="157.76" height="70" viewBox="0 0 157.76 70">
                            <g id="LOGO设计" transform="translate(-483.833 -1115.498)">
                                <g id="MAIKE" transform="translate(518.833 1130.5)">
                                    <path id="E" d="M0,24V20.121H11.879V24ZM0,13.939V10.06H7.03v3.879ZM0,3.879V0H11.879V3.879Z" transform="translate(38.666 0)" />
                                    <path id="K" d="M3.824,24H0V22.962L5.585,12h0L0,1.037V0H3.825L9.939,12h0L3.824,24h0Z" transform="translate(36.484 24) rotate(180)" />
                                    <rect id="I" width="3.879" height="24" transform="translate(20.485 0)" />
                                    <path id="A" d="M4.128,24H0L8.734,0V7.757h0V0h2.3V7.757h-.991L6.951,16.242H11.03v3.879H5.539L4.128,24h0Z" transform="translate(7.273)" />
                                    <path id="M" d="M0,24V0H3.879V24ZM9.12,12.635,3.879,6.163V0l6.789,8.383L9.12,12.635Z" transform="translate(0 0)" />
                                </g>
                                <g id="LAB" transform="translate(573.742 1139.954)">
                                    <path id="A-2" data-name="A" d="M2.58,14.545H0L5.294,0V0H6.667V4.848H6.109L4.344,9.7H6.666v2.424h-3.2L2.58,14.545h0Z" transform="translate(11.636 0)" />
                                    <path id="L" d="M3.436,14.545H2.424V12.121H4.364l-.928,2.424h0ZM0,14.545V0H2.424V14.545Z" transform="translate(6.545)" />
                                    <path id="_" data-name="「" d="M2.424,7.273V4.848H4.848V7.273ZM0,7.273V0H2.424V7.273Z" transform="translate(0 7.273)" />
                                    <path id="_2" data-name="」" d="M2.424,7.273V2.424H0V0H4.848V7.273Z" transform="translate(28)" />
                                    <path id="B" d="M0,14.545V12.121H3.879V8.242H0V5.818H3.515V2.424H0V0H3.515A2.424,2.424,0,0,1,5.939,2.424V5.818a2.417,2.417,0,0,1-.174.9A2.414,2.414,0,0,1,6.3,8.242v3.879a2.424,2.424,0,0,1-2.424,2.424Z" transform="translate(20 0)" />
                                </g>
                                <g id="组件_7_1" data-name="组件 7 – 1" transform="translate(578.59 1130.5)">
                                    <text id="SINCE_2002" data-name="SINCE 2002" transform="translate(28 4)" fill="red" font-size="4" font-family="Orbitron-Bold, Orbitron" font-weight="700">
                                        <tspan x="-28.376" y="0">SINCE 2002</tspan>
                                    </text>
                                </g>
                            </g>
                            <path id="garland-right" d="M10.26,62.639a11.138,11.138,0,0,1-4.132,5.32A10.419,10.419,0,0,1,0,70a9.784,9.784,0,0,1,3.822-5.186A11.847,11.847,0,0,1,10.26,62.639ZM12.6,57.285a10.164,10.164,0,0,1-5.715,2.978,9.373,9.373,0,0,1,2.858-5.655A11.041,11.041,0,0,1,15.665,51.4,11.038,11.038,0,0,1,12.6,57.285ZM3.581,51.63a11.355,11.355,0,0,1,1,6.625,9.438,9.438,0,0,1-2.823,5.621,9.39,9.39,0,0,1-1.067-6.19A11.382,11.382,0,0,1,3.581,51.63ZM18.936,38.781a11.566,11.566,0,0,1-1.859,6.458,10.363,10.363,0,0,1-4.923,4.015A9.462,9.462,0,0,1,13.772,43.2,11.7,11.7,0,0,1,18.936,38.781Zm-11.6,2.576A11.47,11.47,0,0,1,9.4,47.715,9.8,9.8,0,0,1,7.506,53.7a9.89,9.89,0,0,1-2.066-5.99A10.462,10.462,0,0,1,7.334,41.358Zm.689-4.484a10.889,10.889,0,0,1,.62-6.592,11.823,11.823,0,0,1,3.271,5.856,9.771,9.771,0,0,1-.654,6.257A9.934,9.934,0,0,1,8.022,36.874Zm11.052-5.119a9.739,9.739,0,0,1-4.166,4.785,9.5,9.5,0,0,1,.516-6.291A11.369,11.369,0,0,1,19.8,25.129,11.109,11.109,0,0,1,19.074,31.754Zm-.482-12.782a9.818,9.818,0,0,1-2.961,5.621,9.951,9.951,0,0,1-.964-6.257,10.771,10.771,0,0,1,3.064-5.956A11.488,11.488,0,0,1,18.592,18.972ZM7.54,18.805a12.452,12.452,0,0,1,4.579,5.019v-.034a9.675,9.675,0,0,1,.792,6.257A9.783,9.783,0,0,1,8.435,25.4,11.014,11.014,0,0,1,7.54,18.805Zm5.887-6.391a9.732,9.732,0,0,1-2-6.056,11.049,11.049,0,0,1,2-6.358A11.536,11.536,0,0,1,15.39,6.391,10.042,10.042,0,0,1,13.428,12.414ZM4.786,7.729a12.154,12.154,0,0,1,5.371,4.149,9.841,9.841,0,0,1,1.894,6.056,10.477,10.477,0,0,1-5.164-3.848A11.354,11.354,0,0,1,4.786,7.729Z" transform="translate(137.76)" fill="#be9900" opacity="0.698" />
                            <path id="garland-left" d="M9.74,62.639a11.138,11.138,0,0,0,4.132,5.32A10.419,10.419,0,0,0,20,70a9.784,9.784,0,0,0-3.822-5.186A11.847,11.847,0,0,0,9.74,62.639ZM7.4,57.285a10.164,10.164,0,0,0,5.715,2.978,9.373,9.373,0,0,0-2.858-5.655A11.042,11.042,0,0,0,4.334,51.4,11.038,11.038,0,0,0,7.4,57.285Zm9.021-5.655a11.355,11.355,0,0,0-1,6.625,9.438,9.438,0,0,0,2.823,5.621,9.39,9.39,0,0,0,1.067-6.19A11.381,11.381,0,0,0,16.419,51.63ZM1.064,38.781a11.566,11.566,0,0,0,1.859,6.458,10.363,10.363,0,0,0,4.923,4.015A9.462,9.462,0,0,0,6.228,43.2,11.7,11.7,0,0,0,1.064,38.781Zm11.6,2.576A11.469,11.469,0,0,0,10.6,47.715a9.8,9.8,0,0,0,1.894,5.99,9.889,9.889,0,0,0,2.066-5.99A10.462,10.462,0,0,0,12.667,41.358Zm-.689-4.484a10.889,10.889,0,0,0-.62-6.592,11.822,11.822,0,0,0-3.271,5.856,9.771,9.771,0,0,0,.654,6.257A9.934,9.934,0,0,0,11.978,36.874ZM.926,31.754a9.739,9.739,0,0,0,4.166,4.785,9.5,9.5,0,0,0-.516-6.291A11.368,11.368,0,0,0,.2,25.129,11.109,11.109,0,0,0,.926,31.754Zm.482-12.782a9.817,9.817,0,0,0,2.961,5.621,9.952,9.952,0,0,0,.964-6.257A10.771,10.771,0,0,0,2.269,12.38,11.487,11.487,0,0,0,1.408,18.972Zm11.052-.167a12.452,12.452,0,0,0-4.579,5.019v-.034a9.674,9.674,0,0,0-.792,6.257A9.782,9.782,0,0,0,11.565,25.4,11.014,11.014,0,0,0,12.46,18.805ZM6.572,12.414a9.732,9.732,0,0,0,2-6.056A11.05,11.05,0,0,0,6.572,0,11.536,11.536,0,0,0,4.61,6.391,10.042,10.042,0,0,0,6.572,12.414Zm8.642-4.685a12.153,12.153,0,0,0-5.371,4.149A9.84,9.84,0,0,0,7.95,17.935a10.478,10.478,0,0,0,5.165-3.848A11.355,11.355,0,0,0,15.214,7.729Z" fill="#be9900" opacity="0.698" />
                            <g id="组件_8_1" data-name="组件 8 – 1" transform="translate(26.878 48)">
                                <g id="组件_9_1" data-name="组件 9 – 1">
                                    <text id="Developers_choice" data-name="Developers’ choice" transform="translate(104 12)" fill="#939393" font-size="12" font-family="Futura-Medium, Futura" font-weight="500">
                                        <tspan x="-103.793" y="0">Developers’ choice</tspan>
                                    </text>
                                </g>
                            </g>
                        </svg>